<?xml version="1.0" encoding="UTF-8" standalone="no" ?>
<!DOCTYPE svg PUBLIC "-//W3C//DTD SVG 1.1//EN" "http://www.w3.org/Graphics/SVG/1.1/DTD/svg11.dtd">
<svg xmlns="http://www.w3.org/2000/svg" xmlns:xlink="http://www.w3.org/1999/xlink" version="1.1" width="1280" height="1024" viewBox="0 0 1280 1024" xml:space="preserve">
<desc>Created with Fabric.js 5.3.0</desc>
<defs>
</defs>
<g transform="matrix(1 0 0 1 640 512)" id="background-logo"  >
<rect style="stroke: none; stroke-width: 0; stroke-dasharray: none; stroke-linecap: butt; stroke-dashoffset: 0; stroke-linejoin: miter; stroke-miterlimit: 4; fill: rgb(255,255,255); fill-opacity: 0; fill-rule: nonzero; opacity: 1;"  paint-order="stroke"  x="-640" y="-512" rx="0" ry="0" width="1280" height="1024" />
</g>
<g transform="matrix(1.9211538461538462 0 0 1.9211538461538462 640 410.0727857838331)" id="logo-logo"  >
<g style=""  paint-order="stroke"   >
		<g transform="matrix(0.5389821511134201 0 0 -0.5389821511134202 0 -44.44801659151929)"  >
<linearGradient id="SVGID_57626_43306" gradientUnits="userSpaceOnUse" gradientTransform="matrix(-12.271094 -221.99524 -221.99524 12.271094 691.92999 541.16675)"  x1="0" y1="0" x2="1" y2="0">
<stop offset="0%" style="stop-color:rgb(224,61,150);stop-opacity: 1"/>
<stop offset="100%" style="stop-color:rgb(118,42,144);stop-opacity: 1"/>
</linearGradient>
<path style="stroke: none; stroke-width: 1; stroke-dasharray: none; stroke-linecap: butt; stroke-dashoffset: 0; stroke-linejoin: miter; stroke-miterlimit: 4; fill: url(#SVGID_57626_43306); fill-rule: nonzero; opacity: 1;"  paint-order="stroke"  transform=" translate(-681.4255, -412.9675000000001)" d="M 649.218 508.38 L 543.489 447.338 C 523.56 435.83 511.282 414.566 511.282 391.552 L 511.282 391.552 L 511.282 308.981 C 530.961 311.02 549.386 315.878 566.302 322.416 L 566.302 322.416 C 565.629 324.604 565.011 326.812 564.484 329.047 L 564.484 329.047 C 561.1550000000001 343.13800000000003 561.902 352.497 562.414 356.01500000000004 L 562.414 356.01500000000004 L 562.422 356.09800000000007 C 564.2180000000001 374.6930000000001 571.788 391.96900000000005 583.739 404.74700000000007 L 583.739 404.74700000000007 C 596.779 418.69000000000005 614.219 426.36800000000005 632.8430000000001 426.36800000000005 L 632.8430000000001 426.36800000000005 C 649.6490000000001 426.36800000000005 665.1560000000001 420.422 677.6880000000001 409.17500000000007 L 677.6880000000001 409.17500000000007 C 679.594 407.4630000000001 682.2200000000001 407.40600000000006 684.0720000000001 409.0300000000001 L 684.0720000000001 409.0300000000001 C 696.8200000000002 420.2080000000001 713.0840000000001 426.3640000000001 729.8660000000001 426.3640000000001 L 729.8660000000001 426.3640000000001 C 748.4900000000001 426.3640000000001 765.9290000000001 418.6850000000001 778.9700000000001 404.7430000000001 L 778.9700000000001 404.7430000000001 C 790.9210000000002 391.9650000000001 798.4910000000001 374.68900000000014 800.2880000000001 356.0970000000001 L 800.2880000000001 356.0970000000001 L 800.2970000000001 356.0050000000001 C 800.8120000000001 352.4140000000001 801.5380000000001 343.0680000000001 798.2250000000001 329.0410000000001 L 798.2250000000001 329.0410000000001 C 797.6930000000001 326.7870000000001 797.0730000000001 324.5620000000001 796.3960000000002 322.3560000000001 L 796.3960000000002 322.3560000000001 C 814.6230000000002 315.2940000000001 833.0380000000002 310.8040000000001 851.5690000000002 308.9250000000001 L 851.5690000000002 308.9250000000001 L 851.5690000000002 391.55200000000013 C 851.5690000000002 414.56600000000014 839.2920000000001 435.83000000000015 819.3610000000002 447.33800000000014 L 819.3610000000002 447.33800000000014 L 713.633 508.38 C 703.668 514.134 692.547 517.01 681.4250000000001 517.01 L 681.4250000000001 517.01 C 670.3040000000001 517.01 659.1830000000001 514.134 649.2180000000001 508.38" stroke-linecap="round" />
</g>
		<g transform="matrix(0.5389821511134201 0 0 -0.5389821511134202 0 33.57587075756604)"  >
<linearGradient id="SVGID_57627_43307" gradientUnits="userSpaceOnUse" gradientTransform="matrix(8.9244318 205.26192 205.26192 -8.9244318 677.68268 185.41228)"  x1="0" y1="0" x2="1" y2="0">
<stop offset="0%" style="stop-color:rgb(237,61,87);stop-opacity: 1"/>
<stop offset="100%" style="stop-color:rgb(221,124,71);stop-opacity: 1"/>
</linearGradient>
<path style="stroke: none; stroke-width: 1; stroke-dasharray: none; stroke-linecap: butt; stroke-dashoffset: 0; stroke-linejoin: miter; stroke-miterlimit: 4; fill: url(#SVGID_57627_43307); fill-rule: nonzero; opacity: 1;"  paint-order="stroke"  transform=" translate(-681.4254999999999, -268.22387499999996)" d="M 596.195 352.84 C 596.142 352.274 596.077 351.71 595.993 351.147 L 595.993 351.147 C 595.9870000000001 351.104 595.3570000000001 346.079 597.464 337.039 L 597.464 337.039 C 617.081 347.897 633.802 360.33299999999997 647.057 371.667 L 647.057 371.667 C 651.594 366.356 659.534 357.556 670.587 347.10799999999995 L 670.587 347.10799999999995 C 663.122 340.65399999999994 654.652 333.86599999999993 645.221 327.12299999999993 L 645.221 327.12299999999993 C 602.756 296.762 557.032 279.036 511.282 274.93 L 511.282 274.93 L 511.282 269.467 C 511.282 246.45399999999998 523.56 225.189 543.489 213.682 L 543.489 213.682 L 649.218 152.64 C 669.1479999999999 141.13299999999998 693.703 141.13299999999998 713.6329999999999 152.64 L 713.6329999999999 152.64 L 819.3609999999999 213.682 C 839.2919999999999 225.189 851.5689999999998 246.45399999999998 851.5689999999998 269.467 L 851.5689999999998 269.467 L 851.5689999999998 274.93199999999996 C 828.0419999999998 277.04599999999994 804.5259999999998 282.77299999999997 781.4529999999999 291.95899999999995 L 781.4529999999999 291.95899999999995 C 776.6999999999998 285.22299999999996 771.1429999999999 278.9479999999999 764.8459999999999 273.24099999999993 L 764.8459999999999 273.24099999999993 L 764.7469999999998 273.1529999999999 L 706.4329999999999 221.1239999999999 C 699.1259999999999 214.6039999999999 689.9929999999998 211.3489999999999 680.8629999999998 211.3479999999999 L 680.8629999999998 211.3479999999999 C 671.6259999999999 211.3479999999999 662.3919999999998 214.6809999999999 655.0529999999999 221.3409999999999 L 655.0529999999999 221.3409999999999 L 597.8549999999999 273.2529999999999 C 595.4139999999999 275.46299999999985 593.0969999999999 277.77099999999984 590.882 280.1469999999999 L 590.882 280.1469999999999 C 601.827 284.69299999999987 612.6579999999999 289.96299999999985 623.3219999999999 295.95799999999986 L 623.3219999999999 295.95799999999986 L 677.8559999999999 246.46599999999987 C 679.5569999999999 244.92299999999986 682.1319999999998 244.91199999999986 683.8459999999999 246.44099999999986 L 683.8459999999999 246.44099999999986 L 742.1049999999999 298.4209999999999 C 753.7869999999999 309.0239999999999 761.7729999999999 322.3069999999999 765.204 336.8369999999999 L 765.204 336.8369999999999 C 767.371 346.0139999999999 766.722 351.10899999999987 766.7139999999999 351.1579999999999 L 766.7139999999999 351.1579999999999 C 766.637 351.6679999999999 766.5699999999999 352.2519999999999 766.515 352.8379999999999 L 766.515 352.8379999999999 C 764.614 372.5129999999999 751.4159999999999 392.4339999999999 729.866 392.4339999999999 L 729.866 392.4339999999999 C 721.318 392.4339999999999 712.999 389.2679999999999 706.441 383.5199999999999 L 706.441 383.5199999999999 C 705.777 382.9359999999999 705.081 382.41099999999994 704.388 381.88199999999995 L 704.388 381.88199999999995 C 713.3670000000001 373.42099999999994 724.743 363.68199999999996 738.1840000000001 354.13999999999993 L 738.1840000000001 354.13999999999993 C 742.7540000000001 350.8949999999999 747.3420000000001 347.8259999999999 751.945 344.92099999999994 L 751.945 344.92099999999994 C 751.764 343.59799999999996 751.4870000000001 342.0249999999999 751.051 340.1789999999999 L 751.051 340.1789999999999 L 751.051 340.17799999999994 C 748.8050000000001 330.66299999999995 744.075 321.7729999999999 737.249 314.14099999999996 L 737.249 314.14099999999996 C 730.642 318.17699999999996 724.097 322.49999999999994 717.63 327.12299999999993 L 717.63 327.12299999999993 C 685.889 349.8159999999999 664.902 373.06999999999994 657.326 382.0439999999999 L 657.326 382.0439999999999 C 656.5450000000001 382.6449999999999 655.77 383.2559999999999 655.025 383.9239999999999 L 655.025 383.9239999999999 C 648.818 389.4939999999999 641.148 392.43799999999993 632.843 392.43799999999993 L 632.843 392.43799999999993 C 611.293 392.43799999999993 598.0949999999999 372.51699999999994 596.1949999999999 352.8399999999999" stroke-linecap="round" />
</g>
</g>
</g>
<g transform="matrix(1.9211538461538462 0 0 1.9211538461538462 640 689.7962235867417)" id="text-logo"  >
<g style=""  paint-order="stroke"   >
		<g transform="matrix(1 0 0 1 0 0)" id="text-logo-path-0"  >
<path style="stroke: none; stroke-width: 0; stroke-dasharray: none; stroke-linecap: butt; stroke-dashoffset: 0; stroke-linejoin: miter; stroke-miterlimit: 4; fill: rgb(225,109,75); fill-rule: nonzero; opacity: 1;"  paint-order="stroke"  transform=" translate(-232.31, 15.075000000000001)" d="M 9.45 0 L 9.45 -18.63 L 20.43 0 L 29.25 0 L 29.25 -30.15 L 22.05 -30.15 L 22.05 -11.43 L 11.03 -30.15 L 2.25 -30.15 L 2.25 0 Z M 58.41 0.49 C 64.17 0.49 69.25 -2.56 72 -7.33 C 73.39 -9.72 74.07 -12.29 74.07 -15.07 C 74.07 -20.65 71.1 -25.7 66.28 -28.53 C 63.9 -29.92 61.25 -30.64 58.41 -30.64 C 52.65 -30.64 47.56 -27.63 44.82 -22.86 C 43.42 -20.47 42.75 -17.86 42.75 -15.07 C 42.75 -9.49 45.72 -4.46 50.53 -1.62 C 52.92 -0.22 55.58 0.49 58.41 0.49 Z M 50.17 -15.07 C 50.17 -19.71 53.87 -23.4 58.41 -23.4 C 63 -23.4 66.64 -19.71 66.64 -15.07 C 66.64 -10.44 62.95 -6.75 58.41 -6.75 C 53.82 -6.75 50.17 -10.44 50.17 -15.07 Z M 99.27 0 L 99.27 -30.15 L 87.57 -30.15 L 87.57 -23.85 L 92.07 -23.85 L 92.07 0 Z M 119.97 0 L 119.97 -14.31 L 125.86 0 L 133.74 0 L 139.68 -14.4 L 139.68 0 L 146.88 0 L 146.88 -30.15 L 138.33 -30.15 L 129.82 -9.45 L 121.27 -30.15 L 112.77 -30.15 L 112.77 0 Z M 168.3 0 L 170.55 -5.85 L 181.53 -5.85 L 183.78 0 L 191.7 0 L 180 -30.15 L 172.08 -30.15 L 160.38 0 Z M 173.03 -12.15 L 176.04 -19.93 L 179.06 -12.15 Z M 230.35 0 L 223.56 -10.89 C 227.16 -12.38 229.68 -15.93 229.68 -20.16 C 229.68 -25.61 225.45 -29.92 220.05 -30.15 L 205.2 -30.15 L 205.2 0 L 212.4 0 L 212.4 -10.13 L 215.28 -10.13 L 221.63 0 Z M 218.79 -16.43 L 212.4 -16.43 L 212.4 -23.85 L 218.79 -23.85 C 220.99 -23.85 222.48 -22.32 222.48 -20.11 C 222.48 -17.91 220.99 -16.43 218.79 -16.43 Z M 269.01 0 L 262.21 -10.89 C 265.81 -12.38 268.33 -15.93 268.33 -20.16 C 268.33 -25.61 264.11 -29.92 258.7 -30.15 L 243.85 -30.15 L 243.85 0 L 251.05 0 L 251.05 -10.13 L 253.94 -10.13 L 260.28 0 Z M 257.44 -16.43 L 251.05 -16.43 L 251.05 -23.85 L 257.44 -23.85 C 259.65 -23.85 261.13 -22.32 261.13 -20.11 C 261.13 -17.91 259.65 -16.43 257.44 -16.43 Z M 279.81 -30.15 L 290.75 -11.83 L 290.75 0 L 297.94 0 L 297.94 -11.61 L 309.01 -30.15 L 301.59 -30.15 L 294.44 -18.09 L 287.24 -30.15 Z M 325.89 0.45 C 327.74 0.45 329.22 -0.99 329.22 -2.97 C 329.22 -4.81 327.82 -6.3 325.89 -6.3 C 323.95 -6.3 322.51 -4.95 322.51 -2.97 C 322.51 -1.03 323.91 0.45 325.89 0.45 Z M 371.56 -6.61 L 365.13 -10.35 C 363.69 -8.19 361.26 -6.75 358.38 -6.75 C 353.79 -6.75 350.14 -10.44 350.14 -15.07 C 350.14 -19.71 353.83 -23.4 358.38 -23.4 C 361.26 -23.4 363.91 -21.87 365.4 -19.48 L 371.74 -23.18 C 368.91 -27.72 363.96 -30.64 358.38 -30.64 C 352.62 -30.64 347.53 -27.63 344.79 -22.86 C 343.39 -20.47 342.72 -17.86 342.72 -15.07 C 342.72 -9.49 345.69 -4.46 350.5 -1.62 C 352.89 -0.22 355.54 0.49 358.38 0.49 C 363.82 0.49 368.68 -2.29 371.56 -6.61 Z M 399.1 0.49 C 404.86 0.49 409.95 -2.56 412.69 -7.33 C 414.09 -9.72 414.76 -12.29 414.76 -15.07 C 414.76 -20.65 411.79 -25.7 406.98 -28.53 C 404.59 -29.92 401.94 -30.64 399.1 -30.64 C 393.34 -30.64 388.26 -27.63 385.51 -22.86 C 384.12 -20.47 383.44 -17.86 383.44 -15.07 C 383.44 -9.49 386.41 -4.46 391.23 -1.62 C 393.61 -0.22 396.27 0.49 399.1 0.49 Z M 390.87 -15.07 C 390.87 -19.71 394.56 -23.4 399.1 -23.4 C 403.69 -23.4 407.34 -19.71 407.34 -15.07 C 407.34 -10.44 403.65 -6.75 399.1 -6.75 C 394.51 -6.75 390.87 -10.44 390.87 -15.07 Z M 435.46 0 L 435.46 -14.31 L 441.36 0 L 449.23 0 L 455.17 -14.4 L 455.17 0 L 462.37 0 L 462.37 -30.15 L 453.82 -30.15 L 445.32 -9.45 L 436.77 -30.15 L 428.26 -30.15 L 428.26 0 Z" stroke-linecap="round" />
</g>
</g>
</g>
</svg>